<svg id="Layer_1" data-name="Layer 1" xmlns="http://www.w3.org/2000/svg" xmlns:xlink="http://www.w3.org/1999/xlink" viewBox="0 0 700 700"><defs><style>.cls-1{fill:url(#linear-gradient);}</style><linearGradient id="linear-gradient" x1="152.03" y1="152.03" x2="547.97" y2="547.97" gradientUnits="userSpaceOnUse"><stop offset="0" stop-color="#33c990"/><stop offset="1" stop-color="#0099a6"/></linearGradient></defs><path class="cls-1" d="M548,152A280,280,0,1,0,152,548,279.9,279.9,0,0,0,548,548C600.8,495,630,424.81,630,350A277.79,277.79,0,0,0,548,152ZM350,595c-135.08,0-245-109.92-245-245S214.92,105,350,105,595,214.92,595,350,485.08,595,350,595ZM266,362a17.48,17.48,0,1,1,24.72-24.72l41.78,41.78V227a17.5,17.5,0,0,1,35,0V379.09l41.78-41.78A17.48,17.48,0,1,1,434,362l-71.64,71.64a17.43,17.43,0,0,1-24.72,0Zm173.14,111a17.56,17.56,0,0,1-17.5,17.5H278.36a17.5,17.5,0,0,1,0-35H421.64A17.48,17.48,0,0,1,439.14,473.05Z"/></svg>